<svg id="Group_3" data-name="Group 3" xmlns="http://www.w3.org/2000/svg" xmlns:xlink="http://www.w3.org/1999/xlink" width="213.034" height="123.281" viewBox="0 0 213.034 123.281">
  <defs>
    <clipPath id="clip-path">
      <rect id="Rectangle_1" data-name="Rectangle 1" width="213.034" height="123.281" fill="none"/>
    </clipPath>
  </defs>
  <path id="Path_1" data-name="Path 1" d="M50.263,67.589,50.215,47.25,40.24,64.006H36.7L26.777,47.687v19.9H19.417v-33.9h6.489L38.593,54.757,51.086,33.693h6.44l.1,33.9Z" transform="translate(4.222 7.327)" fill="#010238"/>
  <g id="Group_2" data-name="Group 2">
    <g id="Group_1" data-name="Group 1" clip-path="url(#clip-path)">
      <path id="Path_2" data-name="Path 2" d="M76.763,42.382q3.243,2.882,3.245,8.691V65.94h-7.07V62.7Q70.807,66.327,65,66.327a12.318,12.318,0,0,1-5.206-1.017A7.749,7.749,0,0,1,56.426,62.5a7.3,7.3,0,0,1-1.163-4.068A6.79,6.79,0,0,1,58,52.719q2.736-2.08,8.45-2.082h6a4.814,4.814,0,0,0-1.5-3.8,6.613,6.613,0,0,0-4.5-1.332,13.142,13.142,0,0,0-4.092.654,10.815,10.815,0,0,0-3.414,1.768l-2.711-5.279a16.382,16.382,0,0,1,5.108-2.324,22.918,22.918,0,0,1,6.125-.823q6.054,0,9.3,2.882m-6.44,17.965a4.9,4.9,0,0,0,2.131-2.638V55.045H67.272q-4.648,0-4.648,3.051a2.716,2.716,0,0,0,1.137,2.3,5.126,5.126,0,0,0,3.124.847,6.576,6.576,0,0,0,3.438-.9" transform="translate(12.018 8.59)" fill="#010238"/>
      <path id="Path_3" data-name="Path 3" d="M90.922,40.786a13.573,13.573,0,0,1,5.3-.968V46.79c-.84-.065-1.4-.1-1.695-.1a6.925,6.925,0,0,0-5.084,1.816A7.337,7.337,0,0,0,87.6,53.958v12.3H80.051V40.205h7.215v3.438a8.4,8.4,0,0,1,3.656-2.857" transform="translate(17.408 8.659)" fill="#010238"/>
      <path id="Path_4" data-name="Path 4" d="M108.985,57.372l-3.632,3.583V67.59H97.8v-33.9h7.554V52l11.041-10.459H125.4l-10.848,11.04L126.369,67.59h-9.152Z" transform="translate(21.267 7.327)" fill="#010238"/>
      <path id="Path_5" data-name="Path 5" d="M133.924,65.528a16.592,16.592,0,0,1-4.939-2.01l2.518-5.424a15.785,15.785,0,0,0,4.214,1.816,17.63,17.63,0,0,0,4.842.7q4.794,0,4.794-2.373a1.681,1.681,0,0,0-1.308-1.6,19.507,19.507,0,0,0-4.019-.823,38.692,38.692,0,0,1-5.279-1.114,8.179,8.179,0,0,1-3.607-2.227,6.335,6.335,0,0,1-1.525-4.552,7.126,7.126,0,0,1,1.429-4.383,9.184,9.184,0,0,1,4.164-2.978,17.8,17.8,0,0,1,6.465-1.065,25.394,25.394,0,0,1,5.5.605,15.417,15.417,0,0,1,4.529,1.67l-2.519,5.376a15.031,15.031,0,0,0-7.506-1.938,7.636,7.636,0,0,0-3.632.678,2,2,0,0,0-1.211,1.743,1.729,1.729,0,0,0,1.308,1.695,23.085,23.085,0,0,0,4.165.92,44.544,44.544,0,0,1,5.23,1.138,7.853,7.853,0,0,1,3.534,2.2,6.253,6.253,0,0,1,1.5,4.456,6.885,6.885,0,0,1-1.452,4.31,9.281,9.281,0,0,1-4.237,2.929,18.884,18.884,0,0,1-6.61,1.041,25.338,25.338,0,0,1-6.344-.8" transform="translate(28.049 8.59)" fill="#010238"/>
      <path id="Path_6" data-name="Path 6" d="M130.695,16.769H117.425a4.762,4.762,0,0,0-4.761,4.761V34.8a4.761,4.761,0,0,0,4.761,4.761h10.39v6.674a.371.371,0,0,0,.634.265l3.059-3.055,3.178-3.175a2.392,2.392,0,0,0,.769-1.756V21.53a4.762,4.762,0,0,0-4.761-4.761" transform="translate(24.5 3.647)" fill="#2f00ff"/>
      <path id="Path_7" data-name="Path 7" d="M105.515,74.777V87.122H94.85a17.617,17.617,0,0,1-3.643-.321,4.556,4.556,0,0,1-2.456-1.357,4.386,4.386,0,0,1-.963-3.086,14.551,14.551,0,0,1,.235-2.432q.234-1.37.53-2.506l2.667.149-.173,1.555a21.752,21.752,0,0,0-.247,2.469q0,2.518,3.654,2.519h7.753V74.777ZM93.69,71.691h2.543v3.086H93.69Zm3.752,0h2.543v3.086H97.442Z" transform="translate(19.091 15.59)" fill="#010238"/>
      <path id="Path_8" data-name="Path 8" d="M111.119,84.44v3.012h-5.728V70.171H108.7V84.44Z" transform="translate(22.918 15.259)" fill="#010238"/>
      <path id="Path_9" data-name="Path 9" d="M123.292,74.784a3.78,3.78,0,0,1,1.852,2.1,10.855,10.855,0,0,1,.481,3.555v6.173H110.1V83.6h3.852a16.593,16.593,0,0,1-.346-3.135,17.091,17.091,0,0,1,.27-2.915,23.034,23.034,0,0,1,.617-2.691,8.4,8.4,0,0,1,1.976-.567,15.783,15.783,0,0,1,2.913-.247,8.38,8.38,0,0,1,3.913.74m-6.37,7.395q.111.877.235,1.42h5.16V80.364a3.926,3.926,0,0,0-.679-2.542,3.294,3.294,0,0,0-2.6-.814,9.087,9.087,0,0,0-1.876.2,17.94,17.94,0,0,0-.346,3.259,13.6,13.6,0,0,0,.111,1.715" transform="translate(23.942 16.102)" fill="#010238"/>
      <path id="Path_10" data-name="Path 10" d="M139.687,84.44v3.012H124.676V84.44h3.112V73.5H131.1V84.44h3.333V70.171h3.308V84.44Z" transform="translate(27.112 15.259)" fill="#010238"/>
      <path id="Path_11" data-name="Path 11" d="M150.511,83.612v3.012H137.006V83.612h3.482a7.206,7.206,0,0,1-.816-3.531,6.209,6.209,0,0,1,.926-3.543,5.3,5.3,0,0,1,2.284-1.963,6.673,6.673,0,0,1,2.691-.593,10.132,10.132,0,0,1,2.111.259,8.9,8.9,0,0,1,2.087.7l-.149,3.111a14.479,14.479,0,0,0-1.84-.716,6.346,6.346,0,0,0-1.914-.346,3.023,3.023,0,0,0-2.011.741,3.105,3.105,0,0,0-.877,2.493,4.8,4.8,0,0,0,.382,1.987,4.615,4.615,0,0,0,.927,1.4Z" transform="translate(29.793 16.088)" fill="#010238"/>
    </g>
  </g>
</svg>
